<mxfile host="Electron" modified="2024-05-10T10:43:54.343Z" agent="Mozilla/5.0 (Windows NT 10.0; Win64; x64) AppleWebKit/537.36 (KHTML, like Gecko) draw.io/24.2.5 Chrome/120.0.6099.109 Electron/28.1.0 Safari/537.36" etag="tREY49RQkDm6yK-hdhM0" version="24.2.5" type="device">
  <diagram id="C5RBs43oDa-KdzZeNtuy" name="Page-1">
    <mxGraphModel dx="1420" dy="950" grid="1" gridSize="10" guides="1" tooltips="1" connect="1" arrows="1" fold="1" page="1" pageScale="1" pageWidth="827" pageHeight="1169" math="0" shadow="0">
      <root>
        <mxCell id="WIyWlLk6GJQsqaUBKTNV-0" />
        <mxCell id="WIyWlLk6GJQsqaUBKTNV-1" parent="WIyWlLk6GJQsqaUBKTNV-0" />
        <mxCell id="NuYGhlAVKCTZSwosN-ka-4" value="MainTaskThread" style="swimlane;fontStyle=1;align=center;verticalAlign=top;childLayout=stackLayout;horizontal=1;startSize=26;horizontalStack=0;resizeParent=1;resizeParentMax=0;resizeLast=0;collapsible=1;marginBottom=0;whiteSpace=wrap;html=1;fontSize=14;" parent="WIyWlLk6GJQsqaUBKTNV-1" vertex="1">
          <mxGeometry x="30" y="205" width="250" height="180" as="geometry">
            <mxRectangle x="30" y="150" width="140" height="30" as="alternateBounds" />
          </mxGeometry>
        </mxCell>
        <mxCell id="NuYGhlAVKCTZSwosN-ka-5" value="+ connection_established: &lt;i&gt;bool&lt;/i&gt;&lt;div style=&quot;font-size: 14px;&quot;&gt;+ do_run: bool&lt;/div&gt;&lt;div style=&quot;font-size: 14px;&quot;&gt;+ s: socket&lt;/div&gt;&lt;div style=&quot;font-size: 14px;&quot;&gt;+ output: bool&lt;/div&gt;" style="text;strokeColor=none;fillColor=none;align=left;verticalAlign=top;spacingLeft=4;spacingRight=4;overflow=hidden;rotatable=0;points=[[0,0.5],[1,0.5]];portConstraint=eastwest;whiteSpace=wrap;html=1;fontSize=14;" parent="NuYGhlAVKCTZSwosN-ka-4" vertex="1">
          <mxGeometry y="26" width="250" height="74" as="geometry" />
        </mxCell>
        <mxCell id="NuYGhlAVKCTZSwosN-ka-6" value="" style="line;strokeWidth=1;fillColor=none;align=left;verticalAlign=middle;spacingTop=-1;spacingLeft=3;spacingRight=3;rotatable=0;labelPosition=right;points=[];portConstraint=eastwest;strokeColor=inherit;fontSize=14;" parent="NuYGhlAVKCTZSwosN-ka-4" vertex="1">
          <mxGeometry y="100" width="250" height="8" as="geometry" />
        </mxCell>
        <mxCell id="NuYGhlAVKCTZSwosN-ka-7" value="+ run(): type" style="text;strokeColor=none;fillColor=none;align=left;verticalAlign=top;spacingLeft=4;spacingRight=4;overflow=hidden;rotatable=0;points=[[0,0.5],[1,0.5]];portConstraint=eastwest;whiteSpace=wrap;html=1;fontSize=14;" parent="NuYGhlAVKCTZSwosN-ka-4" vertex="1">
          <mxGeometry y="108" width="250" height="72" as="geometry" />
        </mxCell>
        <mxCell id="NuYGhlAVKCTZSwosN-ka-8" value="VideoHandler" style="swimlane;fontStyle=1;align=center;verticalAlign=top;childLayout=stackLayout;horizontal=1;startSize=26;horizontalStack=0;resizeParent=1;resizeParentMax=0;resizeLast=0;collapsible=1;marginBottom=0;whiteSpace=wrap;html=1;fontSize=14;" parent="WIyWlLk6GJQsqaUBKTNV-1" vertex="1">
          <mxGeometry x="460" y="150" width="320" height="240" as="geometry" />
        </mxCell>
        <mxCell id="NuYGhlAVKCTZSwosN-ka-9" value="+ CountFrames: bool&lt;div style=&quot;font-size: 14px;&quot;&gt;+ FrameNumber: int&lt;/div&gt;&lt;div style=&quot;font-size: 14px;&quot;&gt;+ Filename: string&lt;/div&gt;&lt;div style=&quot;font-size: 14px;&quot;&gt;+ framecenterx: int&lt;/div&gt;&lt;div style=&quot;font-size: 14px;&quot;&gt;+ framecentery: int&lt;/div&gt;&lt;div style=&quot;font-size: 14px;&quot;&gt;+ fourcc: type&lt;/div&gt;&lt;div style=&quot;font-size: 14px;&quot;&gt;+ out: object&lt;/div&gt;" style="text;strokeColor=none;fillColor=none;align=left;verticalAlign=top;spacingLeft=4;spacingRight=4;overflow=hidden;rotatable=0;points=[[0,0.5],[1,0.5]];portConstraint=eastwest;whiteSpace=wrap;html=1;fontSize=14;" parent="NuYGhlAVKCTZSwosN-ka-8" vertex="1">
          <mxGeometry y="26" width="320" height="124" as="geometry" />
        </mxCell>
        <mxCell id="NuYGhlAVKCTZSwosN-ka-10" value="" style="line;strokeWidth=1;fillColor=none;align=left;verticalAlign=middle;spacingTop=-1;spacingLeft=3;spacingRight=3;rotatable=0;labelPosition=right;points=[];portConstraint=eastwest;strokeColor=inherit;fontSize=14;" parent="NuYGhlAVKCTZSwosN-ka-8" vertex="1">
          <mxGeometry y="150" width="320" height="8" as="geometry" />
        </mxCell>
        <mxCell id="NuYGhlAVKCTZSwosN-ka-11" value="+ videoPlayback(starframe,&lt;div style=&quot;font-size: 14px;&quot;&gt;&lt;span style=&quot;white-space: pre; font-size: 14px;&quot;&gt;&#x9;&lt;/span&gt;&lt;span style=&quot;white-space: pre; font-size: 14px;&quot;&gt;&#x9;&lt;/span&gt;&lt;span style=&quot;white-space: pre; font-size: 14px;&quot;&gt;&#x9;&lt;/span&gt;&amp;nbsp; &amp;nbsp;numberOfFrames,&lt;/div&gt;&lt;div style=&quot;font-size: 14px;&quot;&gt;&lt;span style=&quot;white-space: pre; font-size: 14px;&quot;&gt;&#x9;&lt;/span&gt;&lt;span style=&quot;white-space: pre; font-size: 14px;&quot;&gt;&#x9;&lt;/span&gt;&lt;span style=&quot;white-space: pre; font-size: 14px;&quot;&gt;&#x9;&lt;/span&gt;&amp;nbsp; &amp;nbsp;timedelay): void&lt;div style=&quot;font-size: 14px;&quot;&gt;+ videoRecord(): void&lt;/div&gt;&lt;/div&gt;" style="text;strokeColor=none;fillColor=none;align=left;verticalAlign=top;spacingLeft=4;spacingRight=4;overflow=hidden;rotatable=0;points=[[0,0.5],[1,0.5]];portConstraint=eastwest;whiteSpace=wrap;html=1;fontSize=14;" parent="NuYGhlAVKCTZSwosN-ka-8" vertex="1">
          <mxGeometry y="158" width="320" height="82" as="geometry" />
        </mxCell>
        <mxCell id="ALBG7YhI7QgC2mu_kdRs-0" value="FlightControl" style="swimlane;fontStyle=1;align=center;verticalAlign=top;childLayout=stackLayout;horizontal=1;startSize=26;horizontalStack=0;resizeParent=1;resizeParentMax=0;resizeLast=0;collapsible=1;marginBottom=0;whiteSpace=wrap;html=1;fontSize=14;" parent="WIyWlLk6GJQsqaUBKTNV-1" vertex="1">
          <mxGeometry x="184" y="480" width="230" height="160" as="geometry" />
        </mxCell>
        <mxCell id="ALBG7YhI7QgC2mu_kdRs-1" value="+ battery: int&lt;div style=&quot;font-size: 14px;&quot;&gt;+ temperature: int&lt;/div&gt;&lt;div style=&quot;font-size: 14px;&quot;&gt;+ hight: int&lt;/div&gt;" style="text;strokeColor=none;fillColor=none;align=left;verticalAlign=top;spacingLeft=4;spacingRight=4;overflow=hidden;rotatable=0;points=[[0,0.5],[1,0.5]];portConstraint=eastwest;whiteSpace=wrap;html=1;fontSize=14;" parent="ALBG7YhI7QgC2mu_kdRs-0" vertex="1">
          <mxGeometry y="26" width="230" height="64" as="geometry" />
        </mxCell>
        <mxCell id="ALBG7YhI7QgC2mu_kdRs-2" value="" style="line;strokeWidth=1;fillColor=none;align=left;verticalAlign=middle;spacingTop=-1;spacingLeft=3;spacingRight=3;rotatable=0;labelPosition=right;points=[];portConstraint=eastwest;strokeColor=inherit;fontSize=14;" parent="ALBG7YhI7QgC2mu_kdRs-0" vertex="1">
          <mxGeometry y="90" width="230" height="8" as="geometry" />
        </mxCell>
        <mxCell id="ALBG7YhI7QgC2mu_kdRs-3" value="+ land(): void&lt;div style=&quot;font-size: 14px;&quot;&gt;+ start(): void&lt;/div&gt;&lt;div style=&quot;font-size: 14px;&quot;&gt;+ move(xpos, ypos, hpos): void&lt;/div&gt;" style="text;strokeColor=none;fillColor=none;align=left;verticalAlign=top;spacingLeft=4;spacingRight=4;overflow=hidden;rotatable=0;points=[[0,0.5],[1,0.5]];portConstraint=eastwest;whiteSpace=wrap;html=1;fontSize=14;" parent="ALBG7YhI7QgC2mu_kdRs-0" vertex="1">
          <mxGeometry y="98" width="230" height="62" as="geometry" />
        </mxCell>
        <mxCell id="ALBG7YhI7QgC2mu_kdRs-4" value="YOLOv8 (Thread)" style="swimlane;fontStyle=1;align=center;verticalAlign=top;childLayout=stackLayout;horizontal=1;startSize=26;horizontalStack=0;resizeParent=1;resizeParentMax=0;resizeLast=0;collapsible=1;marginBottom=0;whiteSpace=wrap;html=1;fontSize=14;" parent="WIyWlLk6GJQsqaUBKTNV-1" vertex="1">
          <mxGeometry x="530" y="468" width="160" height="154" as="geometry" />
        </mxCell>
        <mxCell id="ALBG7YhI7QgC2mu_kdRs-5" value="+ image: array&lt;div style=&quot;font-size: 14px;&quot;&gt;+ bbox: list&lt;/div&gt;&lt;div style=&quot;font-size: 14px;&quot;&gt;+ searchObj: list&lt;/div&gt;&lt;div style=&quot;font-size: 14px;&quot;&gt;+ pedictTime: float&lt;/div&gt;&lt;div style=&quot;font-size: 14px;&quot;&gt;- model: object&lt;/div&gt;" style="text;strokeColor=none;fillColor=none;align=left;verticalAlign=top;spacingLeft=4;spacingRight=4;overflow=hidden;rotatable=0;points=[[0,0.5],[1,0.5]];portConstraint=eastwest;whiteSpace=wrap;html=1;fontSize=14;" parent="ALBG7YhI7QgC2mu_kdRs-4" vertex="1">
          <mxGeometry y="26" width="160" height="94" as="geometry" />
        </mxCell>
        <mxCell id="ALBG7YhI7QgC2mu_kdRs-6" value="" style="line;strokeWidth=1;fillColor=none;align=left;verticalAlign=middle;spacingTop=-1;spacingLeft=3;spacingRight=3;rotatable=0;labelPosition=right;points=[];portConstraint=eastwest;strokeColor=inherit;fontSize=14;" parent="ALBG7YhI7QgC2mu_kdRs-4" vertex="1">
          <mxGeometry y="120" width="160" height="8" as="geometry" />
        </mxCell>
        <mxCell id="ALBG7YhI7QgC2mu_kdRs-7" value="+ pedict(): list" style="text;strokeColor=none;fillColor=none;align=left;verticalAlign=top;spacingLeft=4;spacingRight=4;overflow=hidden;rotatable=0;points=[[0,0.5],[1,0.5]];portConstraint=eastwest;whiteSpace=wrap;html=1;fontSize=14;" parent="ALBG7YhI7QgC2mu_kdRs-4" vertex="1">
          <mxGeometry y="128" width="160" height="26" as="geometry" />
        </mxCell>
        <mxCell id="ALBG7YhI7QgC2mu_kdRs-8" value="" style="endArrow=block;endFill=1;html=1;edgeStyle=orthogonalEdgeStyle;align=left;verticalAlign=top;rounded=0;exitX=1;exitY=0.5;exitDx=0;exitDy=0;entryX=0;entryY=0.5;entryDx=0;entryDy=0;fontSize=14;" parent="WIyWlLk6GJQsqaUBKTNV-1" source="NuYGhlAVKCTZSwosN-ka-7" target="NuYGhlAVKCTZSwosN-ka-11" edge="1">
          <mxGeometry x="-1" relative="1" as="geometry">
            <mxPoint x="330" y="490" as="sourcePoint" />
            <mxPoint x="490" y="490" as="targetPoint" />
          </mxGeometry>
        </mxCell>
        <mxCell id="ALBG7YhI7QgC2mu_kdRs-14" value="" style="endArrow=classic;html=1;rounded=0;exitX=0.809;exitY=1;exitDx=0;exitDy=0;exitPerimeter=0;entryX=1;entryY=0.5;entryDx=0;entryDy=0;fontSize=14;" parent="WIyWlLk6GJQsqaUBKTNV-1" source="NuYGhlAVKCTZSwosN-ka-11" target="ALBG7YhI7QgC2mu_kdRs-7" edge="1">
          <mxGeometry width="50" height="50" relative="1" as="geometry">
            <mxPoint x="520" y="800" as="sourcePoint" />
            <mxPoint x="570" y="750" as="targetPoint" />
            <Array as="points">
              <mxPoint x="719" y="609" />
            </Array>
          </mxGeometry>
        </mxCell>
        <mxCell id="ALBG7YhI7QgC2mu_kdRs-15" value="" style="endArrow=classic;html=1;rounded=0;exitX=0;exitY=0.5;exitDx=0;exitDy=0;entryX=1;entryY=0.5;entryDx=0;entryDy=0;fontSize=14;" parent="WIyWlLk6GJQsqaUBKTNV-1" source="ALBG7YhI7QgC2mu_kdRs-7" target="ALBG7YhI7QgC2mu_kdRs-3" edge="1">
          <mxGeometry width="50" height="50" relative="1" as="geometry">
            <mxPoint x="360" y="510" as="sourcePoint" />
            <mxPoint x="410" y="460" as="targetPoint" />
          </mxGeometry>
        </mxCell>
        <mxCell id="ALBG7YhI7QgC2mu_kdRs-16" value="" style="endArrow=classic;html=1;rounded=0;entryX=0.848;entryY=1.028;entryDx=0;entryDy=0;entryPerimeter=0;fontSize=14;" parent="WIyWlLk6GJQsqaUBKTNV-1" target="NuYGhlAVKCTZSwosN-ka-7" edge="1">
          <mxGeometry width="50" height="50" relative="1" as="geometry">
            <mxPoint x="470" y="609" as="sourcePoint" />
            <mxPoint x="290" y="619" as="targetPoint" />
            <Array as="points">
              <mxPoint x="470" y="609" />
              <mxPoint x="470" y="440" />
              <mxPoint x="242" y="440" />
            </Array>
          </mxGeometry>
        </mxCell>
        <mxCell id="ALBG7YhI7QgC2mu_kdRs-17" value="NetworkHandler&amp;nbsp;(Thread)" style="swimlane;fontStyle=1;align=center;verticalAlign=top;childLayout=stackLayout;horizontal=1;startSize=26;horizontalStack=0;resizeParent=1;resizeParentMax=0;resizeLast=0;collapsible=1;marginBottom=0;whiteSpace=wrap;html=1;fontSize=14;" parent="WIyWlLk6GJQsqaUBKTNV-1" vertex="1">
          <mxGeometry x="260" y="690" width="210" height="200" as="geometry" />
        </mxCell>
        <mxCell id="ALBG7YhI7QgC2mu_kdRs-18" value="+ IP: String&lt;div&gt;+ IPDrone: string&lt;/div&gt;&lt;div&gt;+ IPKicker: string&lt;/div&gt;" style="text;strokeColor=none;fillColor=none;align=left;verticalAlign=top;spacingLeft=4;spacingRight=4;overflow=hidden;rotatable=0;points=[[0,0.5],[1,0.5]];portConstraint=eastwest;whiteSpace=wrap;html=1;fontSize=14;" parent="ALBG7YhI7QgC2mu_kdRs-17" vertex="1">
          <mxGeometry y="26" width="210" height="54" as="geometry" />
        </mxCell>
        <mxCell id="ALBG7YhI7QgC2mu_kdRs-19" value="" style="line;strokeWidth=1;fillColor=none;align=left;verticalAlign=middle;spacingTop=-1;spacingLeft=3;spacingRight=3;rotatable=0;labelPosition=right;points=[];portConstraint=eastwest;strokeColor=inherit;fontSize=14;" parent="ALBG7YhI7QgC2mu_kdRs-17" vertex="1">
          <mxGeometry y="80" width="210" height="8" as="geometry" />
        </mxCell>
        <mxCell id="ALBG7YhI7QgC2mu_kdRs-20" value="+ connect_drone(): bool&lt;div&gt;+ connect_kicker(): bool&lt;/div&gt;&lt;div&gt;+ send_drone(): bool&lt;/div&gt;&lt;div&gt;+ send_kicker(): bool&lt;/div&gt;&lt;div&gt;+ recieve_stram_drone(): type&lt;/div&gt;&lt;div&gt;+ revieve_kicker(): type&lt;/div&gt;&lt;div&gt;&lt;br&gt;&lt;/div&gt;" style="text;strokeColor=none;fillColor=none;align=left;verticalAlign=top;spacingLeft=4;spacingRight=4;overflow=hidden;rotatable=0;points=[[0,0.5],[1,0.5]];portConstraint=eastwest;whiteSpace=wrap;html=1;fontSize=14;" parent="ALBG7YhI7QgC2mu_kdRs-17" vertex="1">
          <mxGeometry y="88" width="210" height="112" as="geometry" />
        </mxCell>
        <mxCell id="ALBG7YhI7QgC2mu_kdRs-21" value="" style="endArrow=classic;html=1;rounded=0;exitX=1.01;exitY=0.241;exitDx=0;exitDy=0;fontSize=14;exitPerimeter=0;entryX=0.911;entryY=1.009;entryDx=0;entryDy=0;entryPerimeter=0;" parent="WIyWlLk6GJQsqaUBKTNV-1" source="ALBG7YhI7QgC2mu_kdRs-20" target="NuYGhlAVKCTZSwosN-ka-11" edge="1">
          <mxGeometry width="50" height="50" relative="1" as="geometry">
            <mxPoint x="470" y="619" as="sourcePoint" />
            <mxPoint x="751" y="440" as="targetPoint" />
            <Array as="points">
              <mxPoint x="752" y="805" />
            </Array>
          </mxGeometry>
        </mxCell>
        <mxCell id="ALBG7YhI7QgC2mu_kdRs-22" value="" style="endArrow=classic;html=1;rounded=0;exitX=0.171;exitY=1.003;exitDx=0;exitDy=0;entryX=0;entryY=0.5;entryDx=0;entryDy=0;fontSize=14;exitPerimeter=0;" parent="WIyWlLk6GJQsqaUBKTNV-1" source="NuYGhlAVKCTZSwosN-ka-7" target="ALBG7YhI7QgC2mu_kdRs-20" edge="1">
          <mxGeometry width="50" height="50" relative="1" as="geometry">
            <mxPoint x="480" y="629" as="sourcePoint" />
            <mxPoint x="300" y="629" as="targetPoint" />
            <Array as="points">
              <mxPoint x="73" y="834" />
            </Array>
          </mxGeometry>
        </mxCell>
        <mxCell id="ALBG7YhI7QgC2mu_kdRs-23" value="" style="endArrow=classic;html=1;rounded=0;exitX=0.104;exitY=1.048;exitDx=0;exitDy=0;entryX=-0.005;entryY=0.25;entryDx=0;entryDy=0;fontSize=14;exitPerimeter=0;entryPerimeter=0;" parent="WIyWlLk6GJQsqaUBKTNV-1" source="ALBG7YhI7QgC2mu_kdRs-3" target="ALBG7YhI7QgC2mu_kdRs-20" edge="1">
          <mxGeometry width="50" height="50" relative="1" as="geometry">
            <mxPoint x="490" y="639" as="sourcePoint" />
            <mxPoint x="310" y="639" as="targetPoint" />
            <Array as="points">
              <mxPoint x="207" y="806" />
            </Array>
          </mxGeometry>
        </mxCell>
        <mxCell id="ALBG7YhI7QgC2mu_kdRs-24" value="" style="endArrow=classic;html=1;rounded=0;exitX=0.41;exitY=1.003;exitDx=0;exitDy=0;entryX=0;entryY=0.5;entryDx=0;entryDy=0;fontSize=14;exitPerimeter=0;" parent="WIyWlLk6GJQsqaUBKTNV-1" source="NuYGhlAVKCTZSwosN-ka-7" target="ALBG7YhI7QgC2mu_kdRs-3" edge="1">
          <mxGeometry width="50" height="50" relative="1" as="geometry">
            <mxPoint x="500" y="649" as="sourcePoint" />
            <mxPoint x="320" y="649" as="targetPoint" />
            <Array as="points">
              <mxPoint x="133" y="609" />
            </Array>
          </mxGeometry>
        </mxCell>
      </root>
    </mxGraphModel>
  </diagram>
</mxfile>
